# xmcd
#
# Track frame offsets:
#	150
#	14628
#	26514
#	35547
#	49037
#	62879
#	87208
#	101432
#	122053
#	144783
#	161622
#	189693
#	209086
#	226655
#	244231
#	276102
#
# Disc length: 4367 seconds
#
# Revision: 1
# Processed by: cddbd v1.4b41PL2 Copyright (c) Steve Scherf et al.
# Submitted via: audiograbber 1.80
#
DISCID=dc110d10
DTITLE=Paco De Lucia - The Best Of
DYEAR=1900
DGENRE=
TTITLE0=Quizas, Quizas, Quizas
TTITLE1=Cielito Lindo
TTITLE2=Yo Vendo Unos Ojos Negros
TTITLE3=Y Todo A Media Luz
TTITLE4=Alma, Corazon Y Vida
TTITLE5=Almoraima
TTITLE6=Cobre
TTITLE7=La Barrosa
TTITLE8=Gloria Al Nino Ricardo
TTITLE9=Chicr
TTITLE10=Zyryab
TTITLE11=Cancion De Amor
TTITLE12=Convite
TTITLE13=Chanela
TTITLE14=Orient Blue
TTITLE15=Mediterranean Sundance
EXTD=
EXTT0=
EXTT1=
EXTT2=
EXTT3=
EXTT4=
EXTT5=
EXTT6=
EXTT7=
EXTT8=
EXTT9=
EXTT10=
EXTT11=
EXTT12=
EXTT13=
EXTT14=
EXTT15=
PLAYORDER=
